<?xml version="1.0" encoding="UTF-8" standalone="no"?>
<svg
   xmlns:dc="http://purl.org/dc/elements/1.1/"
   xmlns:cc="http://creativecommons.org/ns#"
   xmlns:rdf="http://www.w3.org/1999/02/22-rdf-syntax-ns#"
   xmlns:svg="http://www.w3.org/2000/svg"
   xmlns="http://www.w3.org/2000/svg"
   xmlns:sodipodi="http://sodipodi.sourceforge.net/DTD/sodipodi-0.dtd"
   xmlns:inkscape="http://www.inkscape.org/namespaces/inkscape"
   version="1.1"
   id="Layer_1"
   x="0px"
   y="0px"
   viewBox="0 0 107 33"
   style="enable-background:new 0 0 107 33;"
   xml:space="preserve"
   sodipodi:docname="logo-dark1.svg"
   inkscape:version="1.0.1 (3bc2e813f5, 2020-09-07)"><metadata
   id="metadata22"><rdf:RDF><cc:Work
       rdf:about=""><dc:format>image/svg+xml</dc:format><dc:type
         rdf:resource="http://purl.org/dc/dcmitype/StillImage" /></cc:Work></rdf:RDF></metadata><defs
   id="defs20" /><sodipodi:namedview
   pagecolor="#ffffff"
   bordercolor="#666666"
   borderopacity="1"
   objecttolerance="10"
   gridtolerance="10"
   guidetolerance="10"
   inkscape:pageopacity="0"
   inkscape:pageshadow="2"
   inkscape:window-width="1600"
   inkscape:window-height="872"
   id="namedview18"
   showgrid="false"
   inkscape:zoom="11.844363"
   inkscape:cx="53.795499"
   inkscape:cy="13.13224"
   inkscape:window-x="0"
   inkscape:window-y="0"
   inkscape:window-maximized="1"
   inkscape:current-layer="Layer_1" />
<style
   type="text/css"
   id="style2">
	.st0{display:none;fill:#282642;}
	.st1{fill:#FF4C60;}
	.st2{fill:#282642;}
	.st3{font-family:'ArialRoundedMTBold';}
	.st4{font-size:29px;}
</style>
<title
   id="title4">Babu</title>
<desc
   id="desc6">Created with Sketch.</desc>
<g
   id="Symbols">
	<g
   id="header-1-light"
   transform="translate(-2.000000, -61.000000)">
		<g
   id="Bolby.">
			<g
   transform="translate(2.448000, 61.440000)"
   id="g10">
				<path
   id="Bolby"
   class="st0"
   d="M12.3,25.6c3,0,5.3-0.7,6.9-2c1.6-1.3,2.4-3.2,2.4-5.7c0-1.2-0.3-2.4-1-3.4      c-0.7-1-1.5-1.7-2.5-2.1c0.7-0.4,1.4-1,2-1.8c0.6-0.8,0.9-1.8,0.9-3c0-2.3-0.7-4.1-2.2-5.3C17.3,1,15.1,0.4,12,0.4l0,0H0.9      c-0.3,0-0.5,0.1-0.6,0.3S0,1,0,1.3l0,0v23.4c0,0.2,0.1,0.5,0.3,0.6c0.2,0.2,0.4,0.3,0.6,0.3l0,0H12.3z M11.3,10.3H6.8V5.2h4.5      c0.9,0,1.6,0.2,2.1,0.7C13.8,6.4,14,7,14,7.7c0,0.8-0.2,1.4-0.7,1.9C12.8,10.1,12.2,10.3,11.3,10.3L11.3,10.3z M11.6,20.7H6.8      V15h4.8c0.9,0,1.6,0.3,2.2,0.8c0.5,0.5,0.8,1.2,0.8,2c0,0.8-0.3,1.5-0.8,2C13.3,20.4,12.5,20.7,11.6,20.7L11.6,20.7z M34.1,25.9      c3,0,5.3-0.7,7-2.1c1.6-1.4,2.5-3.4,2.6-6c0-0.6,0.1-1.2,0.1-1.6c0-0.5,0-1-0.1-1.6c-0.1-2.5-1-4.5-2.7-6s-4-2.1-6.9-2.1      s-5.2,0.7-6.9,2.1c-1.7,1.4-2.6,3.4-2.7,6c0,0.3,0,0.9,0,1.6l0,0.2c0,0.6,0,1.1,0,1.4c0.1,2.6,1,4.6,2.6,6      C28.7,25.2,31,25.9,34.1,25.9z M34.1,21.4c-1,0-1.7-0.3-2.2-0.9c-0.5-0.6-0.8-1.6-0.8-2.8l0,0l0-1.4l0-1.4      c0.1-1.2,0.3-2.2,0.8-2.8c0.5-0.6,1.2-0.9,2.2-0.9s1.7,0.3,2.2,0.9c0.5,0.6,0.8,1.6,0.8,2.8c0,0.2,0,0.7,0,1.4      c0,0.7,0,1.2,0,1.4c-0.1,1.3-0.3,2.2-0.8,2.8S35,21.4,34.1,21.4z M52.6,25.6c0.3,0,0.5-0.1,0.6-0.3c0.2-0.2,0.3-0.4,0.3-0.6l0,0      V0.9c0-0.3-0.1-0.5-0.3-0.6S52.9,0,52.6,0l0,0h-4.5c-0.3,0-0.5,0.1-0.7,0.3s-0.3,0.4-0.3,0.6l0,0v23.8c0,0.3,0.1,0.5,0.3,0.6      c0.2,0.2,0.4,0.3,0.7,0.3l0,0H52.6z M69.3,25.9c2.3,0,4.2-0.7,5.5-2.2c1.3-1.5,2-3.6,2.1-6.3c0-0.3,0-0.7,0-1.3c0-0.6,0-1,0-1.3      c-0.1-2.6-0.8-4.7-2.2-6.2c-1.3-1.5-3.2-2.3-5.5-2.3c-2.2,0-3.9,0.7-5.2,2.1l0,0V0.9c0-0.3-0.1-0.5-0.3-0.6S63.4,0,63.2,0l0,0      h-4.6c-0.3,0-0.5,0.1-0.7,0.3s-0.3,0.4-0.3,0.6l0,0v23.8c0,0.3,0.1,0.5,0.3,0.6c0.2,0.2,0.4,0.3,0.7,0.3l0,0h4.3      c0.3,0,0.5-0.1,0.6-0.3c0.2-0.2,0.3-0.4,0.3-0.6l0,0v-1.1C65,25.1,66.9,25.9,69.3,25.9z M67.2,20.9c-1,0-1.8-0.3-2.3-1      c-0.5-0.7-0.8-1.5-0.8-2.5c0-0.3,0-0.8,0-1.4l0-0.2c0-0.5,0-0.8,0-1.1c0-0.9,0.3-1.7,0.8-2.3c0.5-0.6,1.3-0.9,2.3-0.9      c1.1,0,1.9,0.3,2.3,1c0.5,0.6,0.7,1.5,0.8,2.6c0,0.2,0,0.6,0,1.1c0,0.5,0,0.9,0,1.1c-0.1,1.1-0.3,2-0.8,2.6      C69.1,20.6,68.3,20.9,67.2,20.9z M87.3,32.4c0.5,0,0.9-0.3,1.1-0.8l0,0L98.6,8.1c0-0.1,0.1-0.3,0.1-0.5c0-0.2-0.1-0.4-0.2-0.5      c-0.2-0.2-0.3-0.2-0.6-0.2l0,0h-4.2c-0.5,0-0.8,0.3-1.1,0.8l0,0l-4.1,10.2l-4-10.2c-0.2-0.5-0.5-0.8-1-0.8l0,0h-4.3      c-0.2,0-0.4,0.1-0.6,0.2c-0.2,0.2-0.3,0.4-0.3,0.6c0,0.1,0,0.2,0.1,0.4l0,0l6.9,16.3l-2.8,6.8c0,0.1-0.1,0.3-0.1,0.5      c0,0.2,0.1,0.4,0.2,0.5c0.1,0.1,0.3,0.2,0.5,0.2l0,0H87.3z" />
				<path
   id="_x2E_"
   class="st1"
   d="M105,25.6c0.3,0,0.5-0.1,0.6-0.3c0.2-0.2,0.3-0.4,0.3-0.6l0,0v-4.8c0-0.3-0.1-0.5-0.3-0.7      S105.3,19,105,19l0,0h-4.8c-0.3,0-0.5,0.1-0.7,0.3s-0.3,0.4-0.3,0.7l0,0v4.8c0,0.3,0.1,0.5,0.3,0.6c0.2,0.2,0.4,0.3,0.7,0.3l0,0      H105z" />
			</g>
		</g>
	</g>
</g>
<text
   class="st2 st3 st4"
   id="text15"
   x="33.753647"
   y="24.856596">Aj</text>
</svg>
