<?xml version="1.0" encoding="UTF-8" standalone="no"?>
<svg
   xmlns:dc="http://purl.org/dc/elements/1.1/"
   xmlns:cc="http://creativecommons.org/ns#"
   xmlns:rdf="http://www.w3.org/1999/02/22-rdf-syntax-ns#"
   xmlns:svg="http://www.w3.org/2000/svg"
   xmlns="http://www.w3.org/2000/svg"
   xmlns:sodipodi="http://sodipodi.sourceforge.net/DTD/sodipodi-0.dtd"
   xmlns:inkscape="http://www.inkscape.org/namespaces/inkscape"
   id="e59edb86-a3bc-4694-8aac-31e565ca5cfc"
   data-name="Layer 1"
   width="676"
   height="676"
   viewBox="0 0 676 676"
   version="1.1"
   sodipodi:docname="undraw_male_avatar_323b.svg"
   inkscape:export-filename="/home/abu/aibaltool/Neumorphism-Web-Design01/demo/images/avatar-5.png"
   inkscape:export-xdpi="15.337271"
   inkscape:export-ydpi="15.337271"
   inkscape:version="1.0.2 (e86c870879, 2021-01-15)">
  <metadata
     id="metadata37">
    <rdf:RDF>
      <cc:Work
         rdf:about="">
        <dc:format>image/svg+xml</dc:format>
        <dc:type
           rdf:resource="http://purl.org/dc/dcmitype/StillImage" />
        <dc:title>male_avatar</dc:title>
      </cc:Work>
    </rdf:RDF>
  </metadata>
  <defs
     id="defs35" />
  <sodipodi:namedview
     pagecolor="#ffffff"
     bordercolor="#666666"
     borderopacity="1"
     objecttolerance="10"
     gridtolerance="10"
     guidetolerance="10"
     inkscape:pageopacity="0"
     inkscape:pageshadow="2"
     inkscape:window-width="1600"
     inkscape:window-height="872"
     id="namedview33"
     showgrid="false"
     inkscape:zoom="0.44833354"
     inkscape:cx="341.40432"
     inkscape:cy="315.18732"
     inkscape:window-x="0"
     inkscape:window-y="0"
     inkscape:window-maximized="1"
     inkscape:current-layer="e59edb86-a3bc-4694-8aac-31e565ca5cfc" />
  <title
     id="title2">male_avatar</title>
  <path
     d="m 108.84344,69.247256 a 54.236877,69.012062 0 0 1 -4.38272,27.268668 l -0.18033,0.528574 A 54.511723,69.361781 0 0 1 44.978424,137.4558 q -0.490279,-0.11063 -0.978947,-0.22945 a 53.935644,68.628766 0 0 1 -9.844213,-3.69387 q -0.775268,-0.39643 -1.539265,-0.82155 c -0.347783,-0.19258 -0.695567,-0.39131 -1.040131,-0.59618 A 54.488415,69.332123 0 0 1 1e-6,69.247256 C 1e-6,31.003512 24.365796,-5.2e-7 54.421719,-5.2e-7 84.477642,-5.2e-7 108.84344,31.003512 108.84344,69.247256 Z"
     fill="#6c63ff"
     id="path4"
     style="stroke-width:1" />
  <path
     d="m 44.978424,137.4558 q -0.490279,-0.11063 -0.978947,-0.22945 C 43.786942,129.37764 43.057563,113.26843 40.569935,96.397098 39.2094,87.163447 37.320741,77.69829 34.701092,69.237012 a 66.433762,84.531615 0 0 0 -3.07048,-8.571909 C 28.983591,54.30378 25.773032,48.948386 21.879786,45.320075 l 0.573199,-0.995685 q 4.856897,4.529754 8.730016,12.718549 1.161695,2.452336 2.231621,5.23247 1.147203,2.974764 2.188139,6.316252 0.664171,2.126587 1.283258,4.400683 2.695324,9.873881 4.582373,22.531992 0.417833,2.796524 0.795394,5.730314 c 1.949836,15.15449 2.537526,29.1658 2.714638,36.20115 z"
     opacity="0.2"
     id="path6"
     style="stroke-width:1" />
  <path
     d="m 32.615999,132.71093 c -0.347783,-0.19258 -0.695567,-0.39131 -1.040131,-0.59618 -0.336513,-4.65063 -0.954795,-10.41987 -2.085092,-15.89614 a 40.986422,52.151924 0 0 0 -1.90154,-7.21155 C 26.299538,105.16569 24.629854,101.9 22.470696,99.886094 l 0.573199,-0.993637 c 2.260595,2.106103 4.004344,5.435293 5.352006,9.329943 1.518334,4.38839 2.531093,9.49589 3.205729,14.37597 0.500744,3.62422 0.816326,7.12551 1.014369,10.11256 z"
     opacity="0.2"
     id="path8"
     style="stroke-width:1" />
  <ellipse
     cx="16.465265"
     cy="39.12709"
     opacity="0.2"
     id="circle10"
     style="stroke-width:1"
     rx="4.8445907"
     ry="6.1643519" />
  <ellipse
     cx="18.025408"
     cy="92.191216"
     opacity="0.2"
     id="circle12"
     style="stroke-width:1"
     rx="4.8445907"
     ry="6.1643519" />
  <path
     d="m 35.698473,49.481342 c -1.027324,7.374898 1.240519,14.052737 1.240519,14.052737 0,0 3.933465,-5.279233 4.960789,-12.654131 1.027324,-7.374899 -1.240521,-14.052737 -1.240521,-14.052737 0,0 -3.933465,5.279232 -4.960787,12.654131 z"
     opacity="0.2"
     id="path14"
     style="stroke-width:1" />
  <path
     d="m 19.597883,66.987751 c 5.528303,2.572187 11.083476,0.921521 11.083476,0.921521 0,0 -3.407978,-5.821029 -8.936281,-8.393226 -5.528303,-2.572198 -11.083474,-0.921522 -11.083474,-0.921522 0,0 3.407976,5.821029 8.936279,8.393227 z"
     opacity="0.2"
     id="path16"
     style="stroke-width:1" />
  <path
     d="m 18.660426,113.97791 c 3.87489,1.8029 7.774116,0.62679 7.774116,0.62679 0,0 -2.383222,-4.09919 -6.258114,-5.9021 -3.874892,-1.80291 -7.774117,-0.62679 -7.774117,-0.62679 0,0 2.383222,4.0992 6.258115,5.9021 z"
     opacity="0.2"
     id="path18"
     style="stroke-width:1" />
  <ellipse
     cx="54.30999"
     cy="57.585609"
     fill="#d0cde1"
     id="circle20"
     style="stroke-width:1"
     rx="21.216442"
     ry="26.996216" />
  <path
     d="m 46.022318,78.254585 c 0,0 2.652055,16.029002 2.652055,17.716265 0,1.687263 12.597263,9.27995 12.597263,9.27995 l 11.271227,-2.5309 3.978099,-15.185368 c 0,0 -6.630139,-12.654475 -6.630139,-17.716265 z"
     fill="#d0cde1"
     id="path22"
     style="stroke-width:1" />
  <path
     d="m 104.46072,96.515924 -0.18033,0.528574 A 54.511723,69.361781 0 0 1 44.978424,137.4558 q -0.490279,-0.11063 -0.978947,-0.22945 a 53.935644,68.628766 0 0 1 -9.844213,-3.69387 q -0.775268,-0.39643 -1.539265,-0.82155 c -0.347783,-0.19258 -0.695567,-0.39131 -1.040131,-0.59618 a 54.356143,69.163818 0 0 1 -8.895858,-6.61332 l -2.514991,-9.28282 1.413676,-1.37264 2.907859,-2.82521 3.102682,-3.01369 0.806665,-0.78466 12.174042,-11.825302 0.898441,-0.872762 6.327732,-6.146206 0.0016,-0.002 c 0,0 6.842968,14.18749 16.788617,9.969146 9.94565,-4.218346 9.728285,-16.31408 9.728285,-16.31408 z"
     fill="#2f2e41"
     id="path24"
     style="stroke-width:1" />
  <path
     d="m 35.911151,35.83566 c 0,0 6.736141,-18.570928 19.647079,-14.28533 12.910937,4.285598 20.208423,10.713997 20.769775,17.142396 0.561352,6.428399 -0.280673,16.070993 -0.280673,16.070993 0,0 -1.403372,-13.213934 -10.384888,-10.356863 -8.981515,2.85707 -23.015149,0.714267 -23.015149,0.714267 l -2.245383,25.713594 c 0,0 -2.526054,-4.642732 -5.332778,-1.785666 -2.806725,2.857066 -8.139504,-27.499263 0.842017,-33.213391 z"
     fill="#2f2e41"
     id="path26"
     style="stroke-width:1" />
  <path
     d="m 34.155264,133.53248 q -0.775268,-0.39643 -1.539265,-0.82155 c -0.347783,-0.19258 -0.695567,-0.39131 -1.040131,-0.59618 A 54.556162,69.418326 0 0 1 17.472915,120.08867 c 1.479691,-2.56501 2.692104,-3.87006 2.692104,-3.87006 h 9.945649 l 1.490962,6.37976 z"
     fill="#2f2e41"
     id="path28"
     style="stroke-width:1" />
  <path
     d="m 95.748412,95.126882 8.531978,1.917616 a 54.412756,69.235853 0 0 1 -9.138989,18.145652 z"
     fill="#2f2e41"
     id="path30"
     style="stroke-width:1" />
</svg>
